<svg width="291" height="22" viewBox="0 0 291 22" fill="none" xmlns="http://www.w3.org/2000/svg">
<path d="M193.226 10.1023H281.42C281.42 10.1023 281.901 10.2626 281.901 10.5834C281.901 10.9041 281.581 11.0644 281.42 11.0644H193.226C193.226 11.0644 192.745 10.9041 192.745 10.5834C192.745 10.2626 192.905 10.1023 193.226 10.1023Z" fill="black" fill-opacity="0.6"/>
<path d="M283.344 10.745C283.344 10.745 283.986 9.46216 284.627 9.46216C285.269 9.46216 285.91 9.94322 285.91 10.745C285.91 11.5468 285.269 12.0278 284.627 12.0278C283.986 12.0278 283.344 11.3864 283.344 10.745Z" fill="black" fill-opacity="0.6"/>
<path d="M286.711 10.74C286.711 9.77784 287.513 8.97607 288.475 8.97607C289.437 8.97607 290.239 9.77784 290.239 10.74C290.239 11.7021 289.437 12.5038 288.475 12.5038C287.513 12.5038 286.711 11.7021 286.711 10.74Z" fill="black" fill-opacity="0.6"/>
<path d="M188.736 10.745C188.736 10.745 189.378 9.46216 190.019 9.46216C190.661 9.46216 191.302 9.94322 191.302 10.745C191.302 11.5468 190.661 12.0278 190.019 12.0278C189.378 12.0278 188.736 11.3864 188.736 10.745Z" fill="black" fill-opacity="0.6"/>
<path d="M184.406 10.74C184.406 9.77784 185.208 8.97607 186.17 8.97607C187.132 8.97607 187.934 9.77784 187.934 10.74C187.934 11.7021 187.132 12.5038 186.17 12.5038C185.208 12.5038 184.406 11.7021 184.406 10.74Z" fill="black" fill-opacity="0.6"/>
<path d="M8.81969 10.1023H97.014C97.014 10.1023 97.495 10.2626 97.495 10.5834C97.495 10.9041 97.3347 11.0644 97.014 11.0644H8.81969C8.81969 11.0644 8.33862 10.9041 8.33862 10.5834C8.33862 10.2626 8.49898 10.1023 8.81969 10.1023Z" fill="black" fill-opacity="0.6"/>
<path d="M98.9382 10.745C98.9382 10.745 99.5796 9.46216 100.221 9.46216C100.862 9.46216 101.504 9.94322 101.504 10.745C101.504 11.5468 101.023 12.0278 100.221 12.0278C99.4193 12.0278 98.9382 11.3864 98.9382 10.745Z" fill="black" fill-opacity="0.6"/>
<path d="M104.069 12.5038C105.043 12.5038 105.833 11.7141 105.833 10.74C105.833 9.76579 105.043 8.97607 104.069 8.97607C103.095 8.97607 102.305 9.76579 102.305 10.74C102.305 11.7141 103.095 12.5038 104.069 12.5038Z" fill="black" fill-opacity="0.6"/>
<path d="M4.33008 10.745C4.33008 10.745 4.81114 9.46216 5.61291 9.46216C6.41468 9.46216 6.89574 9.94322 6.89574 10.745C6.89574 11.5468 6.41468 12.0278 5.61291 12.0278C4.81114 12.0278 4.33008 11.3864 4.33008 10.745Z" fill="black" fill-opacity="0.6"/>
<path d="M0 10.74C0 9.77784 0.801769 8.97607 1.76389 8.97607C2.72601 8.97607 3.52778 9.77784 3.52778 10.74C3.52778 11.7021 2.72601 12.5038 1.76389 12.5038C0.801769 12.5038 0 11.7021 0 10.74Z" fill="black" fill-opacity="0.6"/>
<path d="M143.575 2.40505C142.773 3.84823 141.811 5.13106 141.009 6.73459C139.566 7.69671 138.123 8.49848 136.68 9.30024C135.878 9.7813 135.076 10.2624 134.275 10.5831C135.076 11.0641 135.878 11.3848 136.68 11.8659C138.123 12.6677 139.406 13.6298 141.009 14.4315C141.972 15.8747 142.773 17.3179 143.575 18.7611C144.056 19.5629 144.537 20.3646 144.858 21.1664C145.339 20.3646 145.66 19.5629 146.141 18.7611C146.943 17.3179 147.905 16.0351 148.706 14.4315C150.15 13.4694 151.593 12.6677 153.036 11.8659C153.838 11.3848 154.64 10.9038 155.441 10.5831C154.64 10.102 153.838 9.7813 153.036 9.30024C151.593 8.49848 150.31 7.53636 148.706 6.73459C147.744 5.29141 146.943 3.84823 146.141 2.40505C145.66 1.60329 145.179 0.801522 144.858 -0.000244141C144.537 0.801522 144.056 1.60329 143.575 2.40505ZM151.272 10.5831C149.989 11.3848 148.546 12.0263 147.263 12.828C146.461 14.2712 145.82 15.554 145.018 16.8368C144.377 15.554 143.575 14.1108 142.773 12.828C141.33 12.0263 140.047 11.3848 138.765 10.5831C140.047 9.94166 141.491 9.13989 142.773 8.33813C143.575 6.89495 144.217 5.61212 145.018 4.32929C145.82 5.61212 146.461 7.0553 147.263 8.33813C148.706 9.13989 149.989 9.78131 151.272 10.5831Z" fill="black" fill-opacity="0.6"/>
<path d="M108.137 10.7463C108.137 10.7463 107.335 9.78414 107.175 9.14273C107.014 8.18061 107.175 7.37884 107.335 6.89778C107.977 5.77531 108.778 5.61496 108.778 5.61496C108.778 5.61496 107.977 5.93566 107.816 7.05814C107.816 7.5392 107.816 8.34096 107.977 8.98238C108.297 9.62379 108.939 10.2652 109.74 10.4256C110.542 10.7463 111.665 10.5859 112.627 10.2652C113.589 9.9445 114.551 9.14273 115.353 8.34096C116.315 7.5392 117.117 6.41672 118.239 5.4546C119.362 4.49248 120.644 3.37001 122.248 3.04931C123.852 2.56825 125.776 2.7286 127.059 3.69072C128.341 4.65284 128.983 6.09602 128.983 7.5392C128.983 8.18061 128.662 8.98238 128.341 9.46344C128.021 9.9445 127.54 10.2652 127.059 10.5859C126.097 11.067 125.134 10.9066 124.493 10.5859C123.05 10.1048 122.569 8.98238 122.248 8.50132C122.088 7.8599 122.088 7.69955 122.088 7.69955C122.088 7.69955 122.088 8.02026 122.569 8.34096C122.889 8.66167 123.691 9.30308 124.653 9.46344C125.134 9.46344 125.776 9.46344 126.257 8.98238C126.738 8.66167 127.059 8.18061 127.059 7.5392C127.059 6.89778 126.578 6.09602 125.936 5.77531C125.295 5.29425 124.172 5.29425 123.05 5.61496C120.805 6.25637 119.041 8.50132 116.796 10.1048C116.315 10.4256 115.994 10.7463 115.513 11.067C115.994 11.3877 116.315 11.7084 116.796 12.0291C118.881 13.793 120.805 16.0379 123.05 16.519C124.172 16.8397 125.134 16.6793 125.936 16.3586C126.578 15.8776 127.059 15.0758 127.059 14.5947C127.059 13.9533 126.738 13.4723 126.257 13.1516C125.776 12.8309 125.134 12.6705 124.653 12.6705C123.691 12.6705 122.889 13.3119 122.569 13.793C122.088 14.274 122.088 14.4344 122.088 14.4344C122.088 14.4344 122.088 14.1137 122.248 13.4723C122.569 12.9912 123.05 11.8687 124.493 11.3877C125.295 11.067 126.257 11.067 127.059 11.3877C127.54 11.548 128.021 11.8687 128.341 12.5101C128.662 12.9912 128.983 13.6326 128.983 14.4344C128.983 15.8776 128.341 17.3207 127.059 18.2829C125.615 19.245 123.852 19.4053 122.248 18.9243C120.644 18.4432 119.201 17.4811 118.239 16.519C117.117 15.5569 116.315 14.4344 115.353 13.6326C114.391 12.8309 113.589 12.0291 112.627 11.7084C111.665 11.3877 110.703 11.2273 109.74 11.548C108.939 11.7084 108.297 12.3498 107.977 12.9912C107.656 13.6326 107.656 14.4344 107.816 14.9154C108.137 16.0379 108.939 16.3586 108.778 16.3586C108.778 16.3586 107.977 16.3586 107.335 15.0758C107.014 14.4344 106.854 13.6326 107.175 12.8309C107.175 12.1894 107.656 11.7084 108.137 11.2273V10.7463Z" fill="black" fill-opacity="0.6"/>
<path d="M181.579 10.7429C181.579 10.7429 182.381 11.8654 182.541 12.3465C182.702 13.3086 182.541 14.1104 182.381 14.5914C181.74 15.7139 180.938 15.8743 180.938 15.8743C180.938 15.8743 181.74 15.5535 181.9 14.4311C181.9 13.95 181.9 13.1482 181.74 12.5068C181.419 11.8654 180.778 11.224 179.976 11.0637C179.174 10.7429 178.052 10.9033 177.089 11.224C176.127 11.5447 175.165 12.3465 174.363 13.1482C173.401 13.95 172.6 15.0725 171.477 16.0346C170.355 16.9967 169.072 18.1192 167.468 18.4399C165.865 18.921 163.94 18.7606 162.658 17.7985C161.375 16.8364 160.733 15.3932 160.733 13.95C160.733 13.3086 161.054 12.5068 161.375 12.0258C161.696 11.5447 162.177 11.224 162.658 10.9033C163.62 10.4222 164.582 10.5826 165.223 10.9033C166.666 11.3844 167.148 12.5068 167.468 12.9879C167.629 13.6293 167.629 13.95 167.629 13.95C167.629 13.95 167.629 13.6293 167.148 13.3086C166.827 12.9879 166.025 12.3465 165.063 12.1861C164.582 12.1861 163.94 12.1861 163.459 12.6672C162.978 12.9879 162.658 13.469 162.658 14.1104C162.658 14.7518 163.139 15.5535 163.78 15.8743C164.422 16.3553 165.544 16.3553 166.666 16.0346C168.911 15.3932 170.675 13.1482 172.92 11.5447C173.401 11.224 173.722 10.9033 174.203 10.5826C173.722 10.2619 173.401 9.94118 172.92 9.62047C170.836 7.85659 168.911 5.61164 166.666 5.13058C165.544 4.80988 164.582 4.97023 163.78 5.29094C163.139 5.772 162.658 6.57376 162.658 7.05482C162.658 7.69623 162.978 8.17729 163.459 8.498C163.94 8.81871 164.582 8.97906 165.063 8.97906C166.025 8.97906 166.827 8.33765 167.148 7.85659C167.468 7.37553 167.629 7.21517 167.629 7.21517C167.629 7.21517 167.629 7.53588 167.468 8.01694C167.148 8.498 166.666 9.62047 165.223 10.1015C164.422 10.4222 163.459 10.4222 162.658 10.1015C162.177 9.94118 161.696 9.62047 161.375 8.97906C161.054 8.498 160.733 7.85659 160.733 7.05482C160.733 5.61164 161.375 4.16846 162.658 3.20634C164.101 2.24422 165.865 2.08387 167.468 2.56493C169.072 3.04599 170.515 4.00811 171.477 4.97023C172.6 5.93235 173.401 7.05482 174.363 7.85659C175.326 8.65835 176.127 9.46012 177.089 9.78083C178.052 10.1015 179.014 10.2619 179.976 9.94118C180.778 9.78083 181.419 9.13941 181.74 8.498C182.06 7.85659 182.06 7.05482 181.9 6.57376C181.579 5.45129 180.778 5.13058 180.938 5.13058C180.938 5.13058 181.74 5.13058 182.381 6.41341C182.702 7.05482 182.862 7.85659 182.541 8.65835C182.541 9.29977 182.06 9.78083 181.579 10.2619V10.7429Z" fill="black" fill-opacity="0.6"/>
<path d="M128.982 10.7477C128.982 10.7477 130.105 10.1063 130.586 9.6252C131.869 8.50273 132.67 7.2199 133.151 6.73884C134.113 5.77673 135.877 4.97496 136.519 5.61637C137.16 6.25779 136.519 8.02167 135.236 8.98379C134.755 9.46485 133.472 10.2666 132.029 10.7477C133.472 11.2287 134.755 12.0305 135.236 12.5116C136.358 13.634 137.16 15.3979 136.519 15.879C135.877 16.5204 134.113 15.7186 133.151 14.7565C132.67 14.2754 131.708 12.9926 130.586 11.8702C130.105 11.3891 129.624 11.0684 128.982 10.7477Z" fill="black" fill-opacity="0.6"/>
<path d="M160.734 10.7477C160.734 10.7477 159.611 11.3891 159.13 11.8702C157.847 12.9926 157.045 14.2754 156.564 14.7565C155.602 15.7186 153.838 16.5204 153.197 15.879C152.556 15.2376 153.197 13.4737 154.48 12.5116C154.961 12.0305 156.244 11.2287 157.687 10.7477C156.244 10.2666 154.961 9.46485 154.48 8.98379C153.357 7.86132 152.716 6.09743 153.197 5.61637C153.838 4.97496 155.442 5.77673 156.564 6.73884C157.045 7.2199 158.008 8.50273 159.13 9.6252C159.611 10.1063 160.092 10.427 160.734 10.7477Z" fill="black" fill-opacity="0.6"/>
<path d="M149.348 6.26017C148.867 5.29805 148.225 3.69451 147.744 3.0531C148.225 3.69451 149.348 4.81699 150.15 5.4584C150.951 6.26017 151.914 7.38264 152.555 7.8637C151.914 7.38264 150.31 6.74123 149.348 6.26017Z" fill="black" fill-opacity="0.6"/>
<path d="M140.367 6.26017C139.405 6.74123 137.802 7.38264 137.16 7.8637C137.802 7.38264 138.924 6.26017 139.565 5.4584C140.367 4.65663 141.49 3.69451 141.971 3.0531C141.49 3.69451 140.848 5.29805 140.367 6.26017Z" fill="black" fill-opacity="0.6"/>
<path d="M140.367 15.0702C140.848 16.0323 141.49 17.6359 141.971 18.2773C141.49 17.6359 140.367 16.5134 139.565 15.872C138.764 15.0702 137.802 13.9477 137.16 13.4667C137.802 13.9477 139.405 14.5891 140.367 15.0702Z" fill="black" fill-opacity="0.6"/>
<path d="M149.348 15.0702C150.31 14.5891 151.914 13.9477 152.555 13.4667C151.914 13.9477 150.791 15.0702 150.15 15.872C149.348 16.6737 148.225 17.6359 147.744 18.2773C148.225 17.6359 148.867 16.0323 149.348 15.0702Z" fill="black" fill-opacity="0.6"/>
<path d="M158.648 15.8747C158.648 15.8747 158.167 14.9125 158.327 14.2711C158.327 13.9504 158.969 13.1487 159.45 12.6676C160.091 12.0262 160.733 11.7055 161.053 11.3848C160.572 11.7055 160.091 12.3469 159.931 13.1487C159.61 13.7901 159.45 14.4315 159.45 14.7522C159.29 15.2332 158.808 15.8747 158.488 15.8747H158.648Z" fill="black" fill-opacity="0.6"/>
<path d="M131.068 5.44934C131.068 5.44934 131.549 6.41146 131.389 7.05287C131.389 7.37358 130.748 8.17535 130.106 8.65641C129.465 9.29782 128.823 9.61853 128.342 9.93923C128.823 9.61853 129.304 8.97711 129.625 8.17535C129.946 7.53393 130.106 6.89252 130.106 6.57181C130.267 6.09075 130.748 5.44934 131.068 5.44934Z" fill="black" fill-opacity="0.6"/>
<path d="M158.648 5.44934C158.648 5.44934 158.167 6.41146 158.327 7.05287C158.327 7.37358 158.969 8.17535 159.45 8.65641C160.091 9.29782 160.733 9.61853 161.053 9.93923C160.572 9.61853 160.091 8.97711 159.931 8.17535C159.61 7.53393 159.45 6.89252 159.45 6.57181C159.29 6.09075 158.808 5.44934 158.488 5.44934H158.648Z" fill="black" fill-opacity="0.6"/>
<path d="M131.068 15.8747C131.068 15.8747 131.549 14.9125 131.389 14.2711C131.389 13.9504 130.748 13.1487 130.106 12.6676C129.465 12.0262 128.823 11.7055 128.342 11.3848C128.823 11.7055 129.304 12.3469 129.625 13.1487C129.946 13.7901 130.106 14.4315 130.106 14.7522C130.267 15.2332 130.748 15.8747 131.068 15.8747Z" fill="black" fill-opacity="0.6"/>
</svg>
