<svg width="14" height="16" viewBox="0 0 14 16" fill="none" xmlns="http://www.w3.org/2000/svg">
<path d="M6.6997 16L6.23495 15.6016C5.59426 15.0652 0 10.2338 0 6.6997C0 2.99956 2.99956 0 6.6997 0C10.3998 0 13.3994 2.99956 13.3994 6.6997C13.3994 10.2338 7.80513 15.0652 7.1671 15.6043L6.6997 16ZM6.6997 1.44867C3.80101 1.45195 1.45198 3.80098 1.4487 6.69967C1.4487 8.91985 4.89051 12.4665 6.6997 14.0898C8.50892 12.4659 11.9507 8.91716 11.9507 6.69967C11.9474 3.80098 9.59841 1.45198 6.6997 1.44867Z" fill="white" fill-opacity="0.5"/>
<path d="M6.69892 9.35462C5.23221 9.35462 4.04321 8.16562 4.04321 6.69892C4.04321 5.23221 5.23221 4.04321 6.69892 4.04321C8.16562 4.04321 9.35462 5.23221 9.35462 6.69892C9.35462 8.16562 8.16565 9.35462 6.69892 9.35462ZM6.69892 5.37103C5.96556 5.37103 5.37106 5.96553 5.37106 6.69888C5.37106 7.43224 5.96556 8.02674 6.69892 8.02674C7.43227 8.02674 8.02677 7.43224 8.02677 6.69888C8.02677 5.96553 7.4323 5.37103 6.69892 5.37103Z" fill="white" fill-opacity="0.5"/>
</svg>
