<svg width="18" height="19" viewBox="0 0 18 19" fill="none" xmlns="http://www.w3.org/2000/svg">
<path d="M13.9001 5.54988H9.7001C9.06087 5.55222 8.43455 5.73004 7.88945 6.06393C7.34435 6.39783 6.9014 6.87499 6.6089 7.44338C6.18918 7.12473 5.67707 6.95149 5.1501 6.94988C4.50032 6.94988 3.87715 7.208 3.41769 7.66747C2.95822 8.12693 2.7001 8.7501 2.7001 9.39988C2.70215 9.76388 2.78612 10.1228 2.9458 10.4499H2.0001V3.44988C2.0001 3.26423 1.92635 3.08618 1.79507 2.9549C1.6638 2.82363 1.48575 2.74988 1.3001 2.74988C1.11445 2.74988 0.936398 2.82363 0.805123 2.9549C0.673847 3.08618 0.600098 3.26423 0.600098 3.44988L0.600098 16.0499C0.600098 16.2355 0.673847 16.4136 0.805123 16.5449C0.936398 16.6761 1.11445 16.7499 1.3001 16.7499C1.48575 16.7499 1.6638 16.6761 1.79507 16.5449C1.92635 16.4136 2.0001 16.2355 2.0001 16.0499V14.6499H16.0001V16.0499C16.0001 16.2355 16.0738 16.4136 16.2051 16.5449C16.3364 16.6761 16.5144 16.7499 16.7001 16.7499C16.8857 16.7499 17.0638 16.6761 17.1951 16.5449C17.3263 16.4136 17.4001 16.2355 17.4001 16.0499V9.04988C17.399 8.12196 17.0299 7.23237 16.3737 6.57623C15.7176 5.9201 14.828 5.55099 13.9001 5.54988ZM7.6001 9.04988C7.6001 8.49292 7.82135 7.95878 8.21517 7.56495C8.609 7.17113 9.14314 6.94988 9.7001 6.94988H13.9001C14.4571 6.94988 14.9912 7.17113 15.385 7.56495C15.7788 7.95878 16.0001 8.49292 16.0001 9.04988V10.4499H7.6001V9.04988ZM4.1001 9.39988C4.1001 9.19221 4.16168 8.9892 4.27705 8.81653C4.39243 8.64386 4.55642 8.50928 4.74828 8.4298C4.94014 8.35033 5.15126 8.32954 5.35494 8.37005C5.55862 8.41057 5.74571 8.51057 5.89256 8.65742C6.0394 8.80426 6.13941 8.99135 6.17992 9.19503C6.22044 9.39871 6.19964 9.60983 6.12017 9.8017C6.0407 9.99356 5.90612 10.1575 5.73345 10.2729C5.56077 10.3883 5.35777 10.4499 5.1501 10.4499C4.87162 10.4499 4.60455 10.3393 4.40764 10.1423C4.21072 9.94543 4.1001 9.67836 4.1001 9.39988ZM2.0001 13.2499V11.8499H16.0001V13.2499H2.0001Z" fill="#B4B4B4"/>
</svg>
