<svg width="16" height="15" viewBox="0 0 16 15" fill="none" xmlns="http://www.w3.org/2000/svg">
<path d="M12.1499 6.88459L12.15 6.89315C12.15 6.89508 12.1497 6.89969 12.1455 6.9074L12.5857 7.14451L12.1455 6.9074C12.1412 6.91546 12.1318 6.9282 12.1134 6.94142C12.1133 6.94152 12.1131 6.94162 12.113 6.94172L8.11973 9.77268L8.11972 9.77266L8.11571 9.77556C8.08618 9.79694 8.0405 9.81396 7.98613 9.81396C7.9323 9.81396 7.88697 9.79727 7.85742 9.77619L3.86447 6.84579L3.86397 6.84543C3.83157 6.82171 3.82848 6.80164 3.82822 6.79924C3.82799 6.79703 3.82806 6.79413 3.82966 6.78959C3.83132 6.78486 3.83549 6.77617 3.84571 6.76534C3.86739 6.74236 3.91139 6.71626 3.97401 6.71117C4.03653 6.7061 4.0912 6.72436 4.1253 6.74923C4.12538 6.74928 4.12545 6.74933 4.12552 6.74939L7.69349 9.36985L7.98447 9.58355L8.27887 9.37459L11.8475 6.84161L11.8475 6.84166L11.8538 6.83701C11.8775 6.81962 11.9127 6.8044 11.9561 6.79958C11.9996 6.79476 12.0421 6.80143 12.077 6.81605L12.2702 6.35487L12.077 6.81605C12.1118 6.83061 12.1317 6.84974 12.1411 6.86306C12.1457 6.86957 12.1479 6.87463 12.1489 6.87778C12.1498 6.88087 12.15 6.88304 12.15 6.88459L12.1499 6.88459Z" fill="white" stroke="white"/>
</svg>
