<svg width="18" height="19" viewBox="0 0 18 19" fill="none" xmlns="http://www.w3.org/2000/svg">
<path d="M15.5622 10.342C15.2302 9.96571 14.7519 9.74988 14.2502 9.74988H3.16691V5.36438C3.16691 4.87379 3.38858 4.38846 3.80449 4.12771C4.43974 3.72929 5.21558 3.92529 5.61691 4.46079L5.76799 4.66204L5.48624 6.27846C5.45241 6.47329 5.49266 6.67396 5.59941 6.84021C5.84733 7.22638 6.37116 7.32088 6.73808 7.04554L8.84158 5.46821C9.17233 5.22029 9.25574 4.75829 9.03233 4.41004L9.02474 4.39779C8.88649 4.18196 8.65141 4.04663 8.39533 4.03496L6.70016 3.95971L6.59866 3.82438C6.21483 3.31279 5.66941 2.92488 5.04174 2.80063C3.42358 2.48038 2.00024 3.71588 2.00024 5.27746C2.00024 5.27746 2.00258 8.60829 2.00374 9.89921C2.00374 10.2352 2.02533 10.5671 2.06674 10.9008C2.12566 11.3727 2.20499 12.0091 2.20499 12.0091C2.35141 13.1787 2.91841 14.2065 3.74208 14.9474L3.47549 16.0265C3.39791 16.3392 3.58866 16.6554 3.90133 16.733C3.94858 16.7446 3.99524 16.7499 4.04191 16.7499C4.30383 16.7499 4.54183 16.572 4.60774 16.3065L4.76933 15.6526C5.41624 15.9816 6.14599 16.1665 6.91366 16.1665H11.2402C11.9537 16.1665 12.6344 16.0073 13.2469 15.7203L13.3922 16.3065C13.4575 16.572 13.6961 16.7499 13.958 16.7499C14.0047 16.7499 14.0513 16.744 14.0986 16.733C14.4112 16.6554 14.602 16.3392 14.5244 16.0265L14.2852 15.0582C15.1777 14.3104 15.7967 13.2382 15.9501 12.0097L15.9862 11.7175C16.0481 11.2193 15.8947 10.7182 15.5622 10.342ZM14.8289 11.5722L14.7927 11.8645C14.5693 13.6518 13.0422 14.9999 11.2408 14.9999H6.91424C5.11291 14.9999 3.58633 13.6518 3.36291 11.8645L3.24449 10.9165H14.2502C14.42 10.9165 14.5757 10.9865 14.6877 11.1137C14.7997 11.2415 14.8499 11.4036 14.8289 11.5722Z" fill="#B4B4B4"/>
</svg>
