<svg width="10" height="11" viewBox="0 0 10 11" fill="none" xmlns="http://www.w3.org/2000/svg">
<g clip-path="url(#clip0_105_3280)">
<path d="M2.61958 7.90226C2.69711 7.82353 2.80273 7.77883 2.91322 7.77797C3.0237 7.77711 3.13001 7.82017 3.20875 7.89768L4.41083 9.07851C4.45583 9.12351 4.51708 9.18017 4.58333 9.24059V2.38851C4.58399 1.83618 4.8037 1.30666 5.19426 0.916101C5.58482 0.525543 6.11434 0.305837 6.66667 0.305176H9.58333C9.69384 0.305176 9.79982 0.349074 9.87796 0.427215C9.9561 0.505355 10 0.611336 10 0.721842C10 0.832349 9.9561 0.93833 9.87796 1.01647C9.79982 1.09461 9.69384 1.13851 9.58333 1.13851H6.66667C6.33515 1.13851 6.0172 1.27021 5.78278 1.50463C5.54836 1.73905 5.41667 2.05699 5.41667 2.38851V9.24059C5.48333 9.17976 5.545 9.12226 5.59167 9.07601L6.79167 7.89768C6.82995 7.85624 6.87625 7.823 6.92776 7.79999C6.97926 7.77698 7.03491 7.76466 7.09132 7.7638C7.14773 7.76293 7.20373 7.77353 7.25592 7.79495C7.30811 7.81637 7.35541 7.84816 7.39495 7.8884C7.43448 7.92865 7.46544 7.9765 7.48593 8.02906C7.50642 8.08163 7.51603 8.1378 7.51416 8.19419C7.5123 8.25057 7.499 8.30599 7.47508 8.35709C7.45116 8.40818 7.41711 8.45388 7.375 8.49142L6.17833 9.66768C6.095 9.75101 5.96458 9.87059 5.82833 9.99142C5.59976 10.1938 5.30505 10.3055 4.99979 10.3055C4.69453 10.3055 4.39982 10.1938 4.17125 9.99142C4.03542 9.87101 3.90625 9.75309 3.82417 9.67101L2.625 8.49142C2.54616 8.41401 2.50131 8.30845 2.50029 8.19796C2.49927 8.08748 2.54218 7.98111 2.61958 7.90226Z" fill="white"/>
</g>
<defs>
<clipPath id="clip0_105_3280">
<rect width="10" height="10" fill="white" transform="matrix(-1 0 0 1 10 0.305176)"/>
</clipPath>
</defs>
</svg>
