<svg width="16" height="16" viewBox="0 0 16 16" fill="none" xmlns="http://www.w3.org/2000/svg">
<g clip-path="url(#clip0_105_1378)">
<path d="M1.22 1.21331L1.92 0.606648C2.72666 -0.200019 4.03333 -0.200019 4.84 0.606648C4.86 0.626648 6.09333 2.23331 6.09333 2.23331C6.85333 3.03331 6.85333 4.29331 6.09333 5.08665L5.32 6.05998C6.29333 8.26665 7.80666 9.78665 9.94 10.6933L10.9133 9.91332C11.7067 9.14665 12.9733 9.14665 13.7667 9.91332C13.7667 9.91332 15.3733 11.1466 15.3933 11.1666C16.2 11.9733 16.2 13.28 15.4267 14.0533L14.76 14.82C13.9933 15.5866 12.96 16.0066 11.84 16.0066C6.74666 16.0066 -3.8147e-06 9.25332 -3.8147e-06 4.16665C-3.8147e-06 3.05331 0.419995 2.01331 1.22 1.21998V1.21331ZM11.84 14.6666C12.6 14.6666 13.3 14.3866 13.78 13.9L14.4467 13.1333C14.72 12.86 14.7333 12.4133 14.4733 12.1266C14.4733 12.1266 12.88 10.9 12.86 10.88C12.5867 10.6066 12.1067 10.6066 11.8267 10.88C11.8067 10.9 10.4667 11.9733 10.4667 11.9733C10.28 12.12 10.0333 12.16 9.81333 12.0733C7.05333 11.02 5.07333 9.04665 3.93333 6.19998C3.84666 5.97998 3.88 5.72665 4.03333 5.53332C4.03333 5.53332 5.10666 4.18665 5.12 4.17332C5.40666 3.88665 5.40666 3.42665 5.12 3.13998C5.1 3.11998 3.87333 1.52665 3.87333 1.52665C3.58666 1.26665 3.14 1.27331 2.83333 1.57998L2.13333 2.18665C1.62 2.69998 1.33333 3.39998 1.33333 4.15998C1.33333 8.79998 7.84666 14.6666 11.84 14.6666Z" fill="black" fill-opacity="0.6"/>
</g>
<defs>
<clipPath id="clip0_105_1378">
<rect width="16" height="16" fill="white" transform="matrix(-1 0 0 1 16 0)"/>
</clipPath>
</defs>
</svg>
